<?xml version="1.0" encoding="UTF-8"?>
<svg xmlns="http://www.w3.org/2000/svg" xmlns:xlink="http://www.w3.org/1999/xlink" width="128px" height="128px" viewBox="0 0 128 128" version="1.1">
<g id="surface1">
<path style="fill:none;stroke-width:2;stroke-linecap:round;stroke-linejoin:round;stroke:rgb(25.490198%,26.274511%,22.352941%);stroke-opacity:1;stroke-miterlimit:10;" d="M 8 13 L 8 20 " transform="matrix(4,0,0,4,0,0)"/>
<path style="fill:none;stroke-width:2;stroke-linecap:round;stroke-linejoin:round;stroke:rgb(34.509805%,63.137257%,34.509805%);stroke-opacity:1;stroke-miterlimit:10;" d="M 11 10 C 11 8.342773 9.657227 7 8 7 C 6.342773 7 5 8.342773 5 10 C 5 11.657227 6.342773 13 8 13 C 9.657227 13 11 11.657227 11 10 Z M 11 10 " transform="matrix(4,0,0,4,0,0)"/>
<path style="fill:none;stroke-width:2;stroke-linecap:round;stroke-linejoin:round;stroke:rgb(34.509805%,63.137257%,34.509805%);stroke-opacity:1;stroke-miterlimit:10;" d="M 25 11.5 L 27 13.5 L 25 15.5 " transform="matrix(4,0,0,4,0,0)"/>
<path style="fill:none;stroke-width:2;stroke-linecap:round;stroke-linejoin:round;stroke:rgb(25.490198%,26.274511%,22.352941%);stroke-opacity:1;stroke-miterlimit:10;" d="M 29 23 L 3 23 C 1.900391 23 1 22.099609 1 21 L 1 5 C 1 3.900391 1.900391 3 3 3 L 29 3 C 30.099609 3 31 3.900391 31 5 L 31 21 C 31 22.099609 30.099609 23 29 23 Z M 29 23 " transform="matrix(4,0,0,4,0,0)"/>
<path style="fill:none;stroke-width:2;stroke-linecap:round;stroke-linejoin:round;stroke:rgb(34.509805%,63.137257%,34.509805%);stroke-opacity:1;stroke-miterlimit:10;" d="M 17 8 C 17 7.447266 16.552734 7 16 7 C 15.447266 7 15 7.447266 15 8 C 15 8.552734 15.447266 9 16 9 C 16.552734 9 17 8.552734 17 8 Z M 17 8 " transform="matrix(4,0,0,4,0,0)"/>
<path style="fill:none;stroke-width:2;stroke-linecap:round;stroke-linejoin:round;stroke:rgb(85.490197%,48.235294%,1.568628%);stroke-opacity:1;stroke-miterlimit:10;" d="M 17 13.5 C 17 12.947266 16.552734 12.5 16 12.5 C 15.447266 12.5 15 12.947266 15 13.5 C 15 14.052734 15.447266 14.5 16 14.5 C 16.552734 14.5 17 14.052734 17 13.5 Z M 17 13.5 " transform="matrix(4,0,0,4,0,0)"/>
<path style="fill:none;stroke-width:2;stroke-linecap:round;stroke-linejoin:round;stroke:rgb(2.352941%,61.56863%,61.56863%);stroke-opacity:1;stroke-miterlimit:10;" d="M 17 19 C 17 18.447266 16.552734 18 16 18 C 15.447266 18 15 18.447266 15 19 C 15 19.552734 15.447266 20 16 20 C 16.552734 20 17 19.552734 17 19 Z M 17 19 " transform="matrix(4,0,0,4,0,0)"/>
</g>
</svg>
